<svg width="50" height="50" xmlns="http://www.w3.org/2000/svg" xmlns:xlink="http://www.w3.org/1999/xlink"><defs><path id="a" d="M0 0h50v50H0z"/></defs><g fill="none" fill-rule="evenodd"><g><mask id="b" fill="#fff"><use xlink:href="#a"/></mask><path d="M50 25c0 13.806-11.195 25-25 25S0 38.807 0 25C0 11.194 11.195 0 25 0s25 11.193 25 25" fill="#FFE7DB" mask="url(#b)"/></g><path d="M22.897 39.008h6.369v-5.655h-6.37v5.655zm-.12-26.786h6.667l-.989 18.215h-4.688l-.99-18.215z" fill="#FFCBB1"/><path d="M27.6 31.131c.306 0 .555.249.555.556v5.654a.556.556 0 01-.556.556H21.23a.556.556 0 01-.555-.556v-5.654c0-.307.248-.556.555-.556h6.37zm-.556 1.111h-5.258v4.544h5.258v-4.544zM27.778 10c.318 0 .572.267.555.586l-.99 18.214a.556.556 0 01-.554.525H22.1a.556.556 0 01-.555-.525l-.989-18.214a.556.556 0 01.555-.586h6.667zm-6.08 1.111l.928 17.103h3.637l.928-17.103h-5.493z" fill="#000" fill-rule="nonzero"/></g></svg>