<svg width="50" height="50" xmlns="http://www.w3.org/2000/svg" xmlns:xlink="http://www.w3.org/1999/xlink"><defs><circle id="a" cx="25" cy="25" r="25"/></defs><g fill="none" fill-rule="evenodd"><mask id="b" fill="#fff"><use xlink:href="#a"/></mask><use fill="#FBE4F1" fill-rule="nonzero" xlink:href="#a"/><path d="M37.943 16.538H18.211c-.92 0-1.673.753-1.673 1.673v19.732c0 .92.753 1.672 1.673 1.672h19.733c.919 0 1.671-.752 1.671-1.672V18.211c0-.92-.752-1.673-1.672-1.673" fill="#F8C9E4" mask="url(#b)"/><g mask="url(#b)" fill="#000"><path d="M21.923 21.154h8.462a.77.77 0 000-1.539h-8.462a.77.77 0 000 1.539z" fill-rule="nonzero"/><path d="M18.703 20.346a1.113 1.113 0 11-2.224 0c0-.616.497-1.115 1.111-1.115.615 0 1.113.499 1.113 1.115"/><path d="M21.803 25.77H31.84a.77.77 0 100-1.54H21.803a.77.77 0 100 1.54z" fill-rule="nonzero"/><path d="M18.689 25a1.113 1.113 0 11-2.224 0c0-.616.497-1.115 1.111-1.115.615 0 1.113.5 1.113 1.115"/><path d="M21.789 30.424h6.38a.77.77 0 000-1.539h-6.38a.77.77 0 000 1.539z" fill-rule="nonzero"/><path d="M18.675 29.654c0 .616-.498 1.115-1.112 1.115-.615 0-1.113-.499-1.113-1.115a1.113 1.113 0 112.224 0"/><path d="M27.224 35.77H15.13a.906.906 0 01-.9-.904V15.134c0-.496.407-.903.9-.903h19.685c.492 0 .899.407.899.903v13.433a.77.77 0 101.538 0V15.134a2.444 2.444 0 00-2.437-2.442H15.13a2.444 2.444 0 00-2.438 2.442v19.732a2.444 2.444 0 002.438 2.442h12.094a.77.77 0 100-1.539z" fill-rule="nonzero"/><path d="M30.883 33.766a.77.77 0 00-1.09 1.086l2.06 2.065a.77.77 0 001.199.137l3.99-4a.77.77 0 00-1.09-1.086l-3.431 3.44-1.638-1.642z" fill-rule="nonzero"/></g></g></svg>