<svg width="130" height="130" xmlns="http://www.w3.org/2000/svg"><g fill="none" fill-rule="evenodd"><path d="M65 0c35.898 0 65 29.102 65 65 0 21.761-10.706 41.004-27.126 52.798l10.965-40.923c.412-1.54-.489-3.118-2.012-3.526l-5.996-1.607a2 2 0 00-.434-1.106l-.01-.016a2.005 2.005 0 00-.412-.373c-.03-.021-.06-.039-.092-.059a2.003 2.003 0 00-.522-.233l-7.433-1.992c.971-10.404-5.8-20.38-16.41-23.223a20.976 20.976 0 00-3.196-.572 21.542 21.542 0 00-3.539-2.266c-.053-.027-.102-.057-.155-.084a22.134 22.134 0 00-1.726-.765c-.106-.042-.206-.093-.312-.134a22.093 22.093 0 00-2.113-.686c-5.515-1.477-11.344-.651-16.415 2.328-4.4 2.583-7.698 6.48-9.463 11.113l-16.722-4.481a1.996 1.996 0 00-2.449 1.414l-13.515 50.442C4.023 90.731 0 78.337 0 65 0 29.102 29.101 0 65 0zM27.775 53.574l6.94 1.86c-.025.074-.061.141-.081.217l-14.976 55.891a65.59 65.59 0 01-5.716-6.343l13.833-51.625zm55.97-1.16l.304.2c4.63 3.105 7.427 8.336 7.26 13.843l-6.093-1.632c.116-.613.197-1.225.257-1.837.021-.22.031-.437.045-.657a20.07 20.07 0 00.041-1.968 19.741 19.741 0 00-.05-.912c-.024-.32-.045-.639-.083-.956-.018-.154-.048-.306-.07-.459a21.01 21.01 0 00-1.005-4.093c-.015-.043-.029-.087-.045-.13a20.8 20.8 0 00-.562-1.398zM60.46 58.191c3.418-5.904 10.363-9.342 17.158-8.178 3.1 3.782 4.58 8.764 3.717 13.772zM55.088 46.01c4.14-2.432 8.883-3.111 13.354-1.913.562.15 1.109.327 1.643.525-6.495 1.51-12.24 5.912-15.26 12.06l-7.323-1.963c1.476-3.615 4.103-6.663 7.586-8.71z" fill="#FFE7DB"/><path d="M34.715 55.433l8.8 2.36c.227.202.497.362.81.446.314.084.628.08.926.018l36.19 9.697a1.995 1.995 0 001.331.518c.127 0 .247-.039.37-.062l18.252 4.891L87.25 126.09A64.866 64.866 0 0165 130c-17.645 0-33.634-7.043-45.343-18.458l14.976-55.89c.021-.077.056-.144.082-.219zm71.116 16.31l5.996 1.606c1.523.408 2.425 1.986 2.012 3.526l-10.965 40.923a64.968 64.968 0 01-10.967 6.368l13.869-51.761c.03-.115.048-.23.055-.343.01-.108.007-.214 0-.32zM77.322 44.168l.534.063c.89.112 1.779.273 2.662.51 10.61 2.842 17.381 12.817 16.41 23.222l-3.034-.813-2.585-.693c.17-5.627-2.753-10.965-7.565-14.043A21.603 21.603 0 0081.841 49l-.04-.058a21.73 21.73 0 00-2.457-2.969l-.112-.11a21.57 21.57 0 00-1.91-1.694zm-7.238.454a17.751 17.751 0 017.535 5.392c-6.795-1.165-13.74 2.273-17.158 8.178l-5.635-1.51c3.019-6.148 8.764-10.55 15.258-12.06z" fill="#FFCBB1"/><path d="M81.337 63.785l-20.875-5.594-5.636-1.51-7.324-1.962c1.476-3.615 4.103-6.663 7.586-8.709 4.14-2.432 8.883-3.112 13.354-1.913a17.746 17.746 0 019.177 5.917c3.1 3.782 4.58 8.763 3.718 13.771m24.494 7.957a1.998 1.998 0 00-.433-1.106c-.005-.005-.008-.01-.012-.016a1.942 1.942 0 00-.41-.373l-.093-.059a1.982 1.982 0 00-.521-.233l-7.434-1.992-3.034-.813-2.585-.693-6.092-1.632c.116-.613.196-1.226.257-1.837.02-.219.03-.437.045-.657a20.062 20.062 0 00.04-1.968 21.156 21.156 0 00-.05-.912c-.024-.319-.044-.64-.082-.956-.018-.154-.048-.306-.07-.459a21.065 21.065 0 00-1.005-4.093l-.045-.13a21.916 21.916 0 00-.562-1.398l-.001-.002a21.523 21.523 0 00-1.944-3.472 21.569 21.569 0 00-2.455-2.968c-.037-.038-.075-.074-.112-.11a22.023 22.023 0 00-1.91-1.695h-.001a21.968 21.968 0 00-1.756-1.247l-.008-.006a22.197 22.197 0 00-1.775-1.013c-.052-.026-.101-.057-.154-.084a21.427 21.427 0 00-1.727-.765c-.106-.042-.205-.094-.312-.134a22.093 22.093 0 00-2.113-.686c-5.514-1.477-11.343-.65-16.414 2.327-4.4 2.584-7.7 6.48-9.463 11.114l-16.722-4.48a1.995 1.995 0 00-2.45 1.413L10.914 101.05a65.602 65.602 0 003.029 4.15l13.832-51.625 6.942 1.86 8.8 2.358c.226.203.496.363.81.447.313.084.627.08.926.018l36.19 9.697a1.995 1.995 0 001.33.518c.128 0 .248-.039.37-.062l18.253 4.891L87.25 126.09a64.762 64.762 0 004.656-1.923l13.869-51.762a1.931 1.931 0 00.055-.662" fill="#000"/></g></svg>